/* XPM */
static char *result[] = {
/* columns rows colors chars-per-pixel */
"42 42 11 1 ",
"  c #151D28",
". c #202E37",
"X c #394A50",
"o c #577277",
"O c #884B2B",
"+ c #BE772B",
"@ c #819796",
"# c #A8B5B2",
"$ c #C7CFCC",
"% c #EBEDE9",
"& c None",
/* pixels */
"&&&&&&&&&&&&&&&&&&&&&&&&&&&&&&&&&&&&&&&&&&",
"&&&&&&&&&&&&&&&&&&&&&&&&&&&&&&&&&&&&&&&&&&",
"&&&&&&&&&&&&&&&&&&&&&&&&&&&&&&&&&&&&&&&&&&",
"&&&&&&&&&&&&&&&&&&&&&&&&&&&&&&&&&&&&&&&&&&",
"&&&&&&&&&&&&&&&&&&&&&&&&&&&&&&&&&&&&&&&&&&",
"&&&&&&&&&&&&&&&&&&&&&&&&&&&&&&&&&&&&&&&&&&",
"&&&&&&&&&&&&&&&&o&&&&&&&&&&&&&&&&&&&&&&&&&",
"&&&&&&&&&&&&&&&oo&&&&&&&.%X.&&&&&&&&&&&&&&",
"&&&&&&&&&&&&&&ooX&&&&& ...%X.&&&&&&&&&&&&&",
"&&&&&&&&&&&&&ooXX&&&&  ...%X.&&&&&&&&&&&&&",
"&&&&&&&&&&&&ooXXX&&&  .....oX.&&&&&&&&&&&&",
"&&&&&&&&&&&&ooXXX&&   .....oX.&&&&&&&&&&&&",
"&&&&&&&&&&&&ooXXX&&  ..XXX.o..&&&&&&&&&&&&",
"&&&&&&&&&&&&ooXXX&&  .X@@ Xo X&&&&&&&&&&&&",
"&&&&&&&&&&&&ooXXX&&& XX#$ @@ X&&&&&&&&&&&&",
"&&&&&&&&&&&&ooXXX&&&@XX$$$$$#X&&&&&&&&&&&&",
"&&&&&&&&&&&&ooXXX&&&&@@$$$$$$#&&&&&&&&&&&&",
"&&&&&&&&&&&&&oXXX&&&& $$$$$$$&&&&&&&&&&&&&",
"&&&&&&&&&&&&&oXXX&&&& @&$&$$&&&&&&&&&&&&&&",
"&&&&&&&&&&&&&oXXX&&$$@$%&&&&&&&&&&&&&&&&&&",
"&&&&&&&&&&&&&ooXX&$$@$$%@@&&&&&&&&&&&&&&&&",
"&&&&&&&&&&&&&&oXX$$@$$@%&@@&&&&&&&&&&&&&&&",
"&&&&&&&&&&&&&+++++$  @@@&@@&&&&&&&&&&&&&&&",
"&&&&&&&&&&&&&&%%%$@$$%@%&@@&&&&&&&&&&&&&&&",
"&&&&&&&&&&&&&&%%&&@$$%&%&&@@&&&&&&&&&&&&&&",
"&&&&&&&&&&&&&&&O&&@@@&&&&&@@&&&&&&&&&&&&&&",
"&&&&&&&&&&&&&&+++&&&@&&&&&@@&&&&&&&&&&&&&&",
"&&&&&&&&&&&&&&&&&$$&##&&&&&&&&&&&&&&&&&&&&",
"&&&&&&&&&&&&&&&&&$$#@@@@@&&&&&&&&&&&&&&&&&",
"&&&&&&&&&&&&&&&&&$$###@@@&&&&&&&&&&&&&&&&&",
"&&&&&&&&&&&&&&&&&$$&&&&@@&&&&&&&&&&&&&&&&&",
"&&&&&&&&&&&&&&&&&&$&&&&&@@&&&&&&&&&&&&&&&&",
"&&&&&&&&&&&&&&&&&&$&&&&&@@&&&&&&&&&&&&&&&&",
"&&&&&&&&&&&&&&&&&$$&&&&&&@&&&&&&&&&&&&&&&&",
"&&&&&&&&&&&&&&&&$&&&&&&&&@&&&&&&&&&&&&&&&&",
"&&&&&&&&&&&&&&&$$$&&&&&&&@@&&&&&&&&&&&&&&&",
"&&&&&&&&&&&&&&&&&&&&&&&&&&&&&&&&&&&&&&&&&&",
"&&&&&&&&&&&&&&&&&&&&&&&&&&&&&&&&&&&&&&&&&&",
"&&&&&&&&&&&&&&&&&&&&&&&&&&&&&&&&&&&&&&&&&&",
"&&&&&&&&&&&&&&&&&&&&&&&&&&&&&&&&&&&&&&&&&&",
"&&&&&&&&&&&&&&&&&&&&&&&&&&&&&&&&&&&&&&&&&&",
"&&&&&&&&&&&&&&&&&&&&&&&&&&&&&&&&&&&&&&&&&&"
};
