/* XPM */
static char *result[] = {
/* columns rows colors chars-per-pixel */
"42 42 5 1 ",
"  c #180E0E",
". c #CC7F00",
"X c #FF9F00",
"o c yellow",
"O c None",
/* pixels */
"OOOOOOOOOOOOOOOOOOOOOOOOOOOOOOOOOOOOOOOOOO",
"OOOOOOOOOOOOOOOOOOOOOOOOOOOOOOOOOOOOOOOOOO",
"OOOOOOOOOOOOOOOOOOOOOOOOOOOOOOOOOOOOOOOOOO",
"OOOOOOOOOOOOOOOOOOOOOOOOOOOOOOOOOOOOOOOOOO",
"OOOOOOOOOOOOOOOOOOOOOOOOOOOOOOOOOOOOOOOOOO",
"OOOOOOOOOOOOOOOOOOOOOOOOOOOOOOOOOOOOOOOOOO",
"OOOOOOOOOOOOOOOOOOOOOOOOOOOOOOOOOOOOOOOOOO",
"OOOOOOOOOOOOOOOOOOOOOOOOOOOOOOOOOOOOOOOOOO",
"OOOOOOOOOOOOOOOOOOOOOOOOOOOOOOOOOOOOOOOOOO",
"OOOOOOOOOOOOOOOOOOOOOOOOOOOOOOOOOOOOOOOOOO",
"OOOOOOOOOOOOOOOOOOOOOOOOOOOOOOOOOOOOOOOOOO",
"OOOOOOOOOOOOOOOOOOOOOOOOOOOOOOOOOOOOOOOOOO",
"OOOOOOOOOOOOOOOOOOOOOOOOOOOOOOOOOOOOOOOOOO",
"OOOOOOOOOOOOOOOOOOOOOOOOOOOOOOOOOOOOOOOOOO",
"OOOOOOOOOOOOOOOOOOOOOOOOOOOOOOOOOOOOOOOOOO",
"OOOOOOOOOOOOOOOOOOOO  OOOOOOOOOOOOOOOOOOOO",
"OOOOOOOOOOOOOOOOOOO oo OOOOOOOOOOOOOOOOOOO",
"OOOOOOOOOOOOOOOOOOO o. OOOOOOOOOOOOOOOOOOO",
"OOOOOOOOOOOOOOOOOOO o. OOOOOOOOOOOOOOOOOOO",
"OOOOOOOOOOOOOOOOOO oXX. OOOOOOOOOOOOOOOOOO",
"OOOOOOOOOOOOOOOOOO oX.. OOOOOOOOOOOOOOOOOO",
"OOOOOOOOOOOOOOOOOO oX.. OOOOOOOOOOOOOOOOOO",
"OOOOOOOOOOOOOOOOOO oX.. OOOOOOOOOOOOOOOOOO",
"OOOOOOOOOOOOOOOOOO oX.. OOOOOOOOOOOOOOOOOO",
"OOOOOOOOOOOOOOOOOO oX.. OOOOOOOOOOOOOOOOOO",
"OOOOOOOOOOOOOOOOOO oX.. OOOOOOOOOOOOOOOOOO",
"OOOOOOOOOOOOOOOOOO o... OOOOOOOOOOOOOOOOOO",
"OOOOOOOOOOOOOOOOOOO X. OOOOOOOOOOOOOOOOOOO",
"OOOOOOOOOOOOOOOOOOO X. OOOOOOOOOOOOOOOOOOO",
"OOOOOOOOOOOOOOOOOOO .. OOOOOOOOOOOOOOOOOOO",
"OOOOOOOOOOOOOOOOOOOO  OOOOOOOOOOOOOOOOOOOO",
"OOOOOOOOOOOOOOOOOOOOOOOOOOOOOOOOOOOOOOOOOO",
"OOOOOOOOOOOOOOOOOOOOOOOOOOOOOOOOOOOOOOOOOO",
"OOOOOOOOOOOOOOOOOOOOOOOOOOOOOOOOOOOOOOOOOO",
"OOOOOOOOOOOOOOOOOOOOOOOOOOOOOOOOOOOOOOOOOO",
"OOOOOOOOOOOOOOOOOOOOOOOOOOOOOOOOOOOOOOOOOO",
"OOOOOOOOOOOOOOOOOOOOOOOOOOOOOOOOOOOOOOOOOO",
"OOOOOOOOOOOOOOOOOOOOOOOOOOOOOOOOOOOOOOOOOO",
"OOOOOOOOOOOOOOOOOOOOOOOOOOOOOOOOOOOOOOOOOO",
"OOOOOOOOOOOOOOOOOOOOOOOOOOOOOOOOOOOOOOOOOO",
"OOOOOOOOOOOOOOOOOOOOOOOOOOOOOOOOOOOOOOOOOO",
"OOOOOOOOOOOOOOOOOOOOOOOOOOOOOOOOOOOOOOOOOO"
};
