/* XPM */
static char *result[] = {
/* columns rows colors chars-per-pixel */
"42 42 10 1 ",
"  c #181425",
". c #262B44",
"X c #9E2835",
"o c #E43B44",
"O c #B86F50",
"+ c #E4A672",
"@ c #0095E9",
"# c #C0CBDC",
"$ c white",
"% c None",
/* pixels */
"%%%%%%%%%%%%%%%%%%%%%%%%%%%%%%%%%%%%%%%%%%",
"%%%%%%%%%%%%%%%%%%%%%%%%%%%%%%%%%%%%%%%%%%",
"%%%%%%%%%%%%%%%%%%%%%%%%%%%%%%%%%%%%%%%%%%",
"%%%%%%%%%%%%%%%%%%%%%%%%%%%%%%%%%%%%%%%%%%",
"%%%%%%%%%%%%%%%%%%%%%%%%%%%%%%%%%%%%%%%%%%",
"%%%%%%%%%%%%%%%%%%%%%%%%%%%%%%%%%%%%%%%%%%",
"%%%%%%%%%%%%%%%%%%%%%%%%%%%%%%%%%%%%%%%%%%",
"%%%%%%%%%%%%%%%%%%%%%%%%%%%%%%%%%%%%%%%%%%",
"%%%%%%%%%%%%%%%%%%%%%%%%%%%%%%%%%%%%%%%%%%",
"%%%%%%%%%%%%%%%%%%%%%%%%%%%%%%%%%%%%%%%%%%",
"%%%%%%%%%%%%%%%%%%%%%%%%%%%%%%%%%%%%%%%%%%",
"%%%%%%%%%%%%%%%%%%%%%%%%%%%%%%%%%%%%%%%%%%",
"%%%%%%%%%%%%%%%%%%%%%%%%%%%%%%%%%%%%%%%%%%",
"%%%%%%%%%%%%%%%%%%%%%%#%%%%%%%%%%%%%%%%%%%",
"%%%%%%%%%%%%%%%%%%%%%%#$%%%%%%%%%%%%%%%%%%",
"%%%%%%%%%%%%%%%%%%%%%%#$%%%%%%%%%%%%%%%%%%",
"%%%%%%%%%%%%%%%%%%....#$%%%%%%%%%%%%%%%%%%",
"%%%%%%%%%%%%%%%%%.....#$ %%%%%%%%%%%%%%%%%",
"%%%%%%%%%%%%%%%%%.....#$  %%%%%%%%%%%%%%%%",
"%%%%%%%%%%%%%%%%% ... #$  %%%%%%%%%%%%%%%%",
"%%%%%%%%%%%%%%%%%%   +#$  %%%%%%%%%%%%%%%%",
"%%%%%%%%%%%%%%%%%%++++#$  %%%%%%%%%%%%%%%%",
"%%%%%%%%%%%%%%%%%% + +#$  %%%%%%%%%%%%%%%%",
"%%%%%%%%%%%%%%%%%%++++#$ %%%%%%%%%%%%%%%%%",
"%%%%%%%%%%%%%%%%%o+++####%%%%%%%%%%%%%%%%%",
"%%%%%%%%%%%%%%%%%XO$$$O+%%%%%%%%%%%%%%%%%%",
"%%%%%%%%%%%%%%%%%XO@@@O+%%%%%%%%%%%%%%%%%%",
"%%%%%%%%%%%%%%%%%.XX  ...%%%%%%%%%%%%%%%%%",
"%%%%%%%%%%%%%%%%%........%%%%%%%%%%%%%%%%%",
"%%%%%%%%%%%%%%%%%%......%%%%%%%%%%%%%%%%%%",
"%%%%%%%%%%%%%%%%%%%%%%%%%%%%%%%%%%%%%%%%%%",
"%%%%%%%%%%%%%%%%%%%%%%%%%%%%%%%%%%%%%%%%%%",
"%%%%%%%%%%%%%%%%%%%%%%%%%%%%%%%%%%%%%%%%%%",
"%%%%%%%%%%%%%%%%%%%%%%%%%%%%%%%%%%%%%%%%%%",
"%%%%%%%%%%%%%%%%%%%%%%%%%%%%%%%%%%%%%%%%%%",
"%%%%%%%%%%%%%%%%%%%%%%%%%%%%%%%%%%%%%%%%%%",
"%%%%%%%%%%%%%%%%%%%%%%%%%%%%%%%%%%%%%%%%%%",
"%%%%%%%%%%%%%%%%%%%%%%%%%%%%%%%%%%%%%%%%%%",
"%%%%%%%%%%%%%%%%%%%%%%%%%%%%%%%%%%%%%%%%%%",
"%%%%%%%%%%%%%%%%%%%%%%%%%%%%%%%%%%%%%%%%%%",
"%%%%%%%%%%%%%%%%%%%%%%%%%%%%%%%%%%%%%%%%%%",
"%%%%%%%%%%%%%%%%%%%%%%%%%%%%%%%%%%%%%%%%%%"
};
