/* XPM */
static char *result[] = {
/* columns rows colors chars-per-pixel */
"42 42 4 1 ",
"  c #43403E",
". c #595652",
"X c #696A6A",
"o c #847E87",
/* pixels */
"........ ............... .................",
"XXX..   .XXXXXooXXX..   .XXXXXooooooooXXXX",
"oXXXX. .XXoooooooXXXX. .XXoooooooooooooooo",
"ooXXX..XXXooooooooXXX..XXXoooooooooooooooo",
"ooXXX..XXXooooooooXXX..XXXoooooooooXoooooo",
"ooXXX. .XXXoooooooXXX. .XXXoooooooXXoooooo",
"XXX..   ..XXooooXXX..   ..XXooooXXX.Xooooo",
"... ............... ................XXXXX.",
"........ .................XX............ .",
"XXX..   .XXXXXooooooooXXXXXX.XXXXXX..   .X",
"oXXXX. .XXooooooooooooooooooXXoooXXXX. .XX",
"ooXXX..XXXoooooooooooooooooooXooooXXX..XXX",
"ooXXX..XXXoooooooooXooooooooooooooXXX..XXX",
"ooXXX. .XXXoooooooXXooooooooooooooXXX. .XX",
"XXX..   ..XXooooXXX.XoooooooooooXXX..   ..",
"... ................XXXXX.......... ......",
"....XXXXXX....... ..................XXXXXX",
"ooooooooooooooXXX....   .XX..XXooooooooooo",
"ooooooooooooooooooXXX. .XoXXXooooooooooooo",
"oooooooooooooooooooXX..XooXXoooooooooooooo",
"oooooooooooooooXoooXX..Xoooooooooooooooooo",
"ooooooooooooooXXXoXX. .Xoooooooooooooooooo",
"XXXooXXXoooXXXX.X...  ..XXXXXXXXXXXooXXXoo",
".................  ...  ..................",
"..        .........XXXX...........        ",
"XX....   .XXXXXooooooXXXXXXXXXXXXX....   .",
"ooXXXX. .XXoooooooooooooooooooooooXXXX. .X",
"oooXXX..XXoooooooooooooooooooooooooXXX..XX",
"ooooXX..XXooXXoooooooooXXXXXXoooooooXX..XX",
"oooXX. ..XXXXooooooooooooXXooooooooXX. ..X",
"XXX..   ....XXXXXXXXXooooooooooXXXX..   ..",
"... .... .............XXXXXXX...... .... .",
"......XX............. .......  .......XX..",
"XXXX.XXXXXooooXXXXXXX...   ....XXXXX.XXXXX",
"oooXXXXoooooooooooooooXX. .XXXoooooXXXXooo",
"ooooXooooooooooooooooooXX..XXoooooooXooooo",
"ooooooooooooooooooooooXXX..XXooooooooooooo",
"ooooooooooooooooooooXXXXX. .XXoooooooooooo",
"XXXXooooXXXXXXXXXXXXXXXX.   .XXXXXXXooooXX",
"....XXXX................  .. .......XXXX..",
"........ ......................... .......",
"XXX..   .XXXXXooooooooXXXXXXX..   .XXXXXoo"
};
