/* XPM */
static char *result[] = {
/* columns rows colors chars-per-pixel */
"42 42 3 1 ",
"  c #3E734E",
". c #7AB055",
"X c #4D9262",
/* pixels */
"XXXXXXXXXXXXXXXXXXXXXXXXXXXXXXXXXXXXXXXXXX",
"XXXXXXXXXXXXXXXXXXXXXXXXXXXXXXXXXXXXXXXXXX",
"XXXXXXXXXXXXXXXXXXXXXXXXXXXXXXXXXXXXXXXXXX",
"XXXXXXXXXXXXXXXXXXXXXXXXXXXXXXXXXXXXXXXXXX",
"XXXXXXXXXXXXXXXXXXXXXXXXXXXXXXXXXXXXXXXXXX",
"XXXXXXXXXXXXXXXXXXXXXXXXXXXXXXXXXXXXXXXXXX",
"XXXXXXXXXXXXXXXXXXX XXXXXXXXXXXXXXXXX XXXX",
"XXXXXXXXXXXXXXXXXX X XXXXXXXXXXXXXXX X XXX",
"XXXXXXXXXXXXXXXXXXX XXXXXXXXXXXXXXXXX XXXX",
"XXXXXXXXXXXXXXXXXXXXXXXXXXXXXXXXXXXXXXXXXX",
"XXXXXXXXXXXXXXXXXXXXXXXXXXXXXXXXXXXXXXXXXX",
"XXXXXXXXXXXXXX.XXXXXXXXXXXXXXXXXXXXXXXXXXX",
"XXXXXXXXXXXXXX..XXXXXXXXXXXXXXXXXXXXXXXXX.",
"XXX.XXXXXXXXXX..XX.XXXXXXXXXXXXXXXXXXX.XX.",
"XXX.XXXXXXXXXXX. ..XXXXXXXXXXXXXXXXXXX.. .",
"XXX.X.XXXXXXXXX .. XXXXXXXXXXXXXXXXXXX .. ",
"XXX.X.XXXXXXXXXX  XXXXXXXXXXXXXXXXXXXXX  X",
"XXXXX.XXXXXXXXXXXXXXXXXXXXXXXXXXXXXXXXXXXX",
"XXXXXXXXXXXXXXXXXXXXXXXXXXXXXXXXXXXXXXXXXX",
"XXXXXXXXXXXXXXXXXXXXXXXXXXXXXXXXXXXXXXXXXX",
"XXXXXXXXXXXXXXXXXXXXXXXXXXXXX.XXXXXXXX.XXX",
"XXXXXXXXXXXXXXXXXXXXXXXXXXXX.X.XXXXXXX.XXX",
"XXXXXXXXXXXXXXXXXXXXXXXXXXXXX.XXXXXX.X.XXX",
"XXXXXXXXXXXXXXXXXXXXXXXXXXXXXXXXXXXX.X.XXX",
"XXXXXXXXXXXXXXXXXXXXXXXXXXXXXXXXXXXX.XXXXX",
"XXXXXXXXXXXXXXXXXXXXXXXXXXXXXXXXXXXXXXXXXX",
"XXXXXXX XXXXXXXXXXXXXXXXXXXXXXXXXXXXXXXXXX",
"XXXXXX X XXXXXXXXXXXXXXXXXXXXXXXXXXXXXXXXX",
"XXXXXXX XXXXXXXXXXXXXXXXXXXXXXXXXXXXXXXXXX",
"XXXXXXXXXXXXXXXXXXXXXX.XXXXXXXXXXXXXXXXXXX",
"XXXXXXXXXXXXXXXXXXXX.X.XXXXXXXXXXXXXXXXXXX",
"XXXXXXXXXXXXXXXXXXXX.X.XXXXXXXXXXXXXXXXXXX",
"XXXXXXXXXXXXXXXXXXXX.XXXXXXXXXXXXXXXXXXXXX",
"XXXXXXXXXXXXXXXXXXXXXXXXXXXXXXXXXXXXXXXXXX",
"XXXXXXXXXX.XXXXXXXXXXXXXXXXXXXXXXXXXXXXXXX",
"XXXXXXXXX.X.XXXXXXXXXXXXXXXXXXXXXXXXXXXXXX",
"XXXXXXXXXX.XXXXXXXXXXXXXXXXXXXXXXXXXXXXXXX",
"XXXXXXXXXXXXXXXXXXXXXXXXXXXXXXXXXXXXXXXXXX",
"XXXXXX XXXXXXXXXXXXXXXXXXXXXXXXXXXXXXXXXXX",
"XXXXX X XXXXXXXXXXXXXXXXXXXXXXXXXXXXXXXXXX",
"XXXXXX XXXXXXXXXXXXXXXXXXXXXXXXXXXXXXXXXXX",
"XXXXXXXXXXXXXXXXXXXXXXXXXXXXXXXXXXXXXXXXXX"
};
