/* XPM */
static char *result[] = {
/* columns rows colors chars-per-pixel */
"42 42 78 1 ",
"  c #1E110E",
". c #20120F",
"X c #20131D",
"o c #2F1A19",
"O c #321C17",
"+ c #381F1D",
"@ c #311D2A",
"# c #3E232C",
"$ c #3E2437",
"% c #3F2A34",
"& c #442526",
"* c #5F352A",
"= c #412634",
"- c #44273E",
"; c #432A3C",
": c #4D2C3A",
"> c #532F32",
", c #5A2D34",
"< c #522C39",
"1 c #563034",
"2 c #5A3335",
"3 c #573238",
"4 c #5D3539",
"5 c #6A3B2F",
"6 c #663932",
"7 c #723C33",
"8 c #512F40",
"9 c #443C42",
"0 c #3F4B46",
"q c #3C664B",
"w c #3B6E4C",
"e c #3E724E",
"r c #3E7551",
"t c #3F7953",
"y c #4A6B4A",
"u c #407750",
"i c #427C54",
"p c #487E50",
"a c #427F58",
"s c #50834F",
"d c #448156",
"f c #4B8354",
"g c #4E8A57",
"h c #468459",
"j c #49875A",
"k c #47885E",
"l c #4A8B5D",
"z c #518650",
"x c #548E56",
"c c #518F5B",
"v c #5F9552",
"b c #52935E",
"n c #59965A",
"m c #57995F",
"M c #5C9C5E",
"N c #629651",
"B c #659D55",
"V c #689D53",
"C c #619D5A",
"Z c #6CA455",
"A c #64A25C",
"S c #69A65B",
"D c #6DA95A",
"F c #71A753",
"G c #73AC56",
"H c #78AE56",
"J c #73AD59",
"K c #7DB255",
"L c #78B259",
"P c #468B61",
"I c #4A8E61",
"U c #4D9363",
"Y c #529661",
"T c #549962",
"R c #599C61",
"E c #81B654",
"W c #87BC56",
"Q c None",
/* pixels */
"QQQQQQQQQQQQQQQQQQQQQQQQQQQQQQQQQQQQQQQQQQ",
"QQQQQQQQQQQQQQQQQQQiffiQQQQQQQQQQQQQQQQQQQ",
"QQQQQQQQQQQQQQQQQQdTKJUhQQQQQQQQQQQQQQQQQQ",
"QQQQQQQQQQQQQQQQQjDKSAYUjQQQQQQQQQQQQQQQQQ",
"QQQQQQQQQQQQQQQQrAEKSAmUYuQQQQQQQQQQQQQQQQ",
"QQQQQQQQQQQQQQQtlJHGCAmUkeeQQQQQQQQQQQQQQQ",
"QQQQQQQQQQQQQQQdYAAGACUUUjeQQQQQQQQQQQQQQQ",
"QQQQQQQQQQQQQQQjSUATTUUIdueQQQQQQQQQQQQQQQ",
"QQQQQQQQQQQQQQtRKZhddddiaeeeQQQQQQQQQQQQQQ",
"QQQQQQQQQQQQQQuMHJcjlllYTjeeQQQQQQQQQQQQQQ",
"QQQQQQQQQQQQQtYKSmMTJKKKGjdueQQQQQQQQQQQQQ",
"QQQQQQQQQQQQQhSKEMmTCJDCfahueQQQQQQQQQQQQQ",
"QQQQQQQQQQQQQkYlZCUUUTMahjhueQQQQQQQQQQQQQ",
"QQQQQQQQQQQQiMTlaillUUUUUUhueQQQQQQQQQQQQQ",
"QQQQQQQQQQQQfSAbPdiaddIUUUhueeQQQQQQQQQQQQ",
"QQQQQQQQQQQQsEAATluwedlUUUYIueQQQQQQQQQQQQ",
"QQQQQQQQQQQQuAESATIlUcbmTUdldeeQQQQQQQQQQQ",
"QQQQQQQQQQQQetCCSMUIdvNNxiuhieeQQQQQQQQQQQ",
"QQQQQQQQQQQfZzrtldYIjreqeehhjueQQQQQQQQQQQ",
"QQQQQQQQQQQBWVgtahUUUUhajUhhdeeQQQQQQQQQQQ",
"QQQQQQQQQQQpMKSAYUbYIUUUUYIdaueQQQQQQQQQQQ",
"QQQQQQQQQQQekAGSbSHHAUUUUUjhuauQQQQQQQQQQQ",
"QQQQQQQQQQeeekMmUDKGMbUUluueweeQQQQQQQQQQQ",
"QQQQQQQQQQeetiiuIUYUUUUUIPbbIUueQQQQQQQQQQ",
"QQQQQQQQQQujAkUUUYUUjaiYSSATlaeuQQQQQQQQQQ",
"QQQQQQQQQQfLAmtelIPuiudJSTYietweQQQQQQQQQQ",
"QQQQQQQQQQzEGmiewewtdjhdddtilUiuQQQQQQQQQQ",
"QQQQQQQQQQiDEHDheutwrraPllnCJRlwQQQQQQQQQQ",
"QQQQQQQQQQtlDEKmUUMAAUUASTSDAkieQQQQQQQQQQ",
"QQQQQQQQQQQtuxMDYURMmYUMTUTPtteeQQQQQQQQQQ",
"QQQQQQQQQQQQeetlUUUaehjhkkieeeQQQQQQQQQQQQ",
"QQQQQQQQQQQQQQeeiideewewweeeeeQQQQQQQQQQQQ",
"QQQQQQQQQQQQQQQQetq0;;;9dQQQQQQQQQQQQQQQQQ",
"QQQQQQQQQQQQQQQQQy2,::<%QQQQQQQQQQQQQQQQQQ",
"QQQQQQQQQQQQQQQQQQ75212=QQQQQQQQQQQQQQQQQQ",
"QQQQQQQQQQQQQQQQQ&665218XQQQQQQQQQQQQQQQQQ",
"QQQQQQQQQQQQQQQQ+=1662<::.QQQQQQQQQQQQQQQQ",
"QQQQQQQQQQQQQQQQQQ*423-:#oQQQQQQQQQQQQQQQQ",
"QQQQQQQQQQQQQQQQQO4===$;1QQQQQQQQQQQQQQQQQ",
"QQQQQQQQQQQQQQQQQ.QQQQQQ@QQQQQQQQQQQQQQQQQ",
"QQQQQQQQQQQQQQQQQQQQQQQQQQQQQQQQQQQQQQQQQQ",
"QQQQQQQQQQQQQQQQQQQQQQQQQQQQQQQQQQQQQQQQQQ"
};
