/* XPM */
static char *result[] = {
/* columns rows colors chars-per-pixel */
"42 42 12 1 ",
"  c black",
". c #412320",
"X c #59302C",
"o c #5C322D",
"O c #6D3B36",
"+ c #434F65",
"@ c #6F7F9F",
"# c gray55",
"$ c #8895AF",
"% c gray68",
"& c #A6B0C4",
"* c None",
/* pixels */
"******************************************",
"******************************************",
"******************************************",
"******************************************",
"******************************************",
"******************************************",
"******************************************",
"******************$$$$$$******************",
"******************$$$$$$******************",
"************$$$$$+$$$$$$+$$$$$************",
"************$$$$$+&&&&&&+$$$$$************",
"*****+$$$$$+$$$$$+@@@@@@+$$$$$+$$$$$+*****",
"*****+$$$$$+&&&&&+@@@@@@+&&&&&+$$$$$+*****",
"*****+$$$$$+@@@@@+@@@@@@+@@@@@+$$$$$+*****",
"*****+&&&&&+@@@@@+@@@@@@+@@@@@+&&&&&+*****",
"*****+@@@@@+@@@@@        @@@@@+@@@@@+*****",
"*****+@@@@@                    @@@@@+*****",
"*****+@@@@@                    @@@@@+*****",
"*****++++++                    ++++++*****",
"*****+&&&&&      ........      &&&&&+*****",
"*****+@@@@@....................@@@@@+*****",
"*****+@@@@@....................@@@@@+*****",
"*****+@@@@@......X.XXXX.X......@@@@@+*****",
"*****+@@@@@XXX.XXX.XXXX.XXX.XXX@@@@@+*****",
"*****++++++XXX.OOOoOOOOoOOO.XXX++++++*****",
"*****+&&&&&OOOoOOOoOOOOoOOOoOOO&&&&&+*****",
"*****+@@@@@##%oOOOoOOOOoOOOoOOO@@@@@+*****",
"*****+@@@@@#%%oOOOoOOOOoOOOoOOO@@@@@+*****",
"*****+@@@@@OOOoOOOoOOOOoOOOoOOO@@@@@+*****",
"*****+@@@@@OOOoOOOoOOOOoOOOoO%O@@@@@+*****",
"*****++++++OOOoOOOoOOOOoOOOoO%O++++++*****",
"*****+&&&&&OOOoOOOoOOOOoOOOoO%O&&&&&+*****",
"*****+@@@@@OOOoOOOoOOOOoOOOoO%O@@@@@+*****",
"*****+@@@@@OOOoOOOoOOOOoOOOoO%O@@@@@+*****",
"*****+@@@@@OOOoOOOoOOOOoOOOoOOO@@@@@+*****",
"******************************************",
"******************************************",
"******************************************",
"******************************************",
"******************************************",
"******************************************",
"******************************************"
};
